<svg width="48" height="48" viewBox="0 0 48 48" fill="none" xmlns="http://www.w3.org/2000/svg">
<path fill-rule="evenodd" clip-rule="evenodd" d="M24 42C33.9411 42 42 33.9411 42 24C42 14.0589 33.9411 6 24 6C14.0589 6 6 14.0589 6 24C6 33.9411 14.0589 42 24 42ZM24 39C32.2843 39 39 32.2843 39 24C39 15.7157 32.2843 9 24 9C15.7157 9 9 15.7157 9 24C9 32.2843 15.7157 39 24 39Z" fill="#FF0000"/>
<path d="M23.5 4L25.6651 7.75H21.3349L23.5 4Z" fill="#FF0000"/>
<path d="M23.5 44L25.6651 40.25H21.3349L23.5 44Z" fill="#FF0000"/>
<path fill-rule="evenodd" clip-rule="evenodd" d="M6.75 22L3 24.1651L6.75 26.3301V22ZM40.25 22L44 24.1651L40.25 26.3301V22Z" fill="#FF0000"/>
<path fill-rule="evenodd" clip-rule="evenodd" d="M13.7135 10.6516L9.53093 9.53093L10.6517 13.7135L13.7135 10.6516ZM37.4016 34.3397L38.5223 38.5223L34.3397 37.4016L37.4016 34.3397Z" fill="#FF0000"/>
<path fill-rule="evenodd" clip-rule="evenodd" d="M37.4016 13.7135L38.5223 9.53093L34.3397 10.6517L37.4016 13.7135ZM13.7135 37.4016L9.53095 38.5223L10.6517 34.3397L13.7135 37.4016Z" fill="#FF0000"/>
<circle cx="21.5" cy="15.5" r="2.5" fill="#FF0000"/>
<circle cx="20" cy="28" r="4" fill="#FF0000"/>
<circle cx="30.5" cy="22.5" r="2.5" fill="#FF0000"/>
<circle cx="28.5" cy="32.5" r="1.5" fill="#FF0000"/>
</svg>
